<svg width="29" height="29" viewBox="0 0 29 29" fill="none" xmlns="http://www.w3.org/2000/svg">
<g clip-path="url(#clip0_88_1567)">
<path d="M15.7367 4.33015C15.4085 4.00244 14.9637 3.81836 14.5 3.81836C14.0362 3.81836 13.5915 4.00244 13.2633 4.33015L6.66117 10.9288C6.33287 11.2571 6.14844 11.7024 6.14844 12.1667C6.14844 12.6309 6.33287 13.0762 6.66117 13.4045C6.98946 13.7328 7.43472 13.9172 7.899 13.9172C8.36328 13.9172 8.80854 13.7328 9.13683 13.4045L12.75 9.79249V23.25C12.75 23.7141 12.9344 24.1592 13.2626 24.4874C13.5907 24.8156 14.0359 25 14.5 25C14.9641 25 15.4092 24.8156 15.7374 24.4874C16.0656 24.1592 16.25 23.7141 16.25 23.25V9.79249L19.862 13.4045C20.0246 13.567 20.2175 13.696 20.4299 13.784C20.6423 13.8719 20.8699 13.9172 21.0998 13.9172C21.3297 13.9172 21.5574 13.8719 21.7697 13.784C21.9821 13.696 22.1751 13.567 22.3377 13.4045C22.5002 13.2419 22.6292 13.049 22.7171 12.8366C22.8051 12.6242 22.8504 12.3965 22.8504 12.1667C22.8504 11.9368 22.8051 11.7091 22.7171 11.4967C22.6292 11.2844 22.5002 11.0914 22.3377 10.9288L15.7367 4.33015Z" fill="white"/>
</g>
<defs>
<clipPath id="clip0_88_1567">
<rect width="28" height="28" fill="white" transform="translate(0.5 0.5)"/>
</clipPath>
</defs>
</svg>
